<?xml version="1.0" standalone="no"?>
<!DOCTYPE svg PUBLIC "-//W3C//DTD SVG 20010904//EN"
 "http://www.w3.org/TR/2001/REC-SVG-20010904/DTD/svg10.dtd">
<svg version="1.0" xmlns="http://www.w3.org/2000/svg"
 width="200.000000pt" height="100.000000pt" viewBox="0 0 200.000000 100.000000"
 preserveAspectRatio="xMidYMid meet">
<metadata>
Created by potrace 1.16, written by Peter Selinger 2001-2019
</metadata>
<g transform="translate(0.000000,100.000000) scale(0.100000,-0.100000)"
fill="#000000" stroke="none">
<path d="M1218 633 c7 -3 16 -2 19 1 4 3 -2 6 -13 5 -11 0 -14 -3 -6 -6z"/>
<path d="M1400 616 c0 -14 65 -106 68 -97 2 5 -11 31 -28 56 -28 41 -40 53
-40 41z"/>
<path d="M543 555 c0 -33 2 -45 4 -27 2 18 2 45 0 60 -2 15 -4 0 -4 -33z"/>
<path d="M627 603 c-15 -14 -5 -33 24 -48 20 -11 29 -21 25 -31 -3 -9 -1 -12
4 -9 18 11 10 33 -20 55 -17 12 -28 26 -25 31 7 10 1 12 -8 2z"/>
<path d="M675 600 c3 -5 8 -10 11 -10 2 0 4 5 4 10 0 6 -5 10 -11 10 -5 0 -7
-4 -4 -10z"/>
<path d="M710 555 c0 -30 5 -55 10 -55 6 0 10 25 10 55 0 30 -4 55 -10 55 -5
0 -10 -25 -10 -55z"/>
<path d="M765 600 c4 -6 2 -17 -4 -24 -8 -9 -8 -22 0 -45 14 -39 31 -41 19 -2
-4 15 -6 40 -3 55 3 16 1 26 -6 26 -7 0 -9 -5 -6 -10z"/>
<path d="M850 604 c0 -19 34 -104 42 -104 5 0 7 6 4 13 -3 6 -11 31 -18 55 -7
23 -16 42 -20 42 -4 0 -8 -3 -8 -6z"/>
<path d="M966 560 c2 -71 14 -76 14 -7 0 32 -3 57 -7 57 -5 0 -7 -23 -7 -50z"/>
<path d="M1018 598 c15 -15 15 -61 0 -76 -9 -9 -9 -12 0 -12 7 0 18 11 24 25
13 28 -2 75 -24 75 -9 0 -9 -3 0 -12z"/>
<path d="M1070 591 c-13 -26 -13 -43 3 -64 10 -15 12 -10 12 33 0 27 -1 50 -2
50 -1 0 -7 -9 -13 -19z"/>
<path d="M1135 560 c0 -43 2 -48 13 -33 6 9 12 24 12 33 0 9 -6 24 -12 33 -11
15 -13 10 -13 -33z"/>
<path d="M1180 591 c-15 -29 -12 -46 11 -72 19 -23 20 -23 10 -2 -14 29 -14
66 1 81 9 9 9 12 0 12 -6 0 -16 -9 -22 -19z"/>
<path d="M1245 600 c3 -5 8 -10 11 -10 2 0 4 5 4 10 0 6 -5 10 -11 10 -5 0 -7
-4 -4 -10z"/>
<path d="M1319 605 c-7 -7 22 -89 35 -102 10 -9 0 37 -17 79 -7 16 -15 27 -18
23z"/>
<path d="M1240 529 c0 -11 5 -17 10 -14 6 3 10 13 10 21 0 8 -4 14 -10 14 -5
0 -10 -9 -10 -21z"/>
<path d="M890 429 c0 -5 5 -7 10 -4 6 3 10 8 10 11 0 2 -4 4 -10 4 -5 0 -10
-5 -10 -11z"/>
<path d="M1098 426 c-23 -17 -23 -22 0 -22 10 0 18 8 18 18 0 10 0 18 -1 18 0
0 -8 -7 -17 -14z"/>
</g>
</svg>
